# xmcd
#
# Track frame offsets:
#	150
#	16507
#	32976
#	48799
#	68816
#	90656
#	106400
#	132627
#	148810
#	168206
#	210521
#
# Disc length: 2974 seconds
#
# Revision: 1
# Processed by: cddbd v1.5.2PL0 Copyright (c) Steve Scherf et al.
# Submitted via: EZCDAudioConverter 7.1.6.1
#
DISCID=910b9c0b
DTITLE=Rascal Flatts - The Best Of Live
DYEAR=2011
DGENRE=Country
TTITLE0=Bob That Head
TTITLE1=Bless The Broken Road
TTITLE2=Still Feels Good
TTITLE3=Here's To You
TTITLE4=Medley: I'm Movin' On\\Skin (Sarabeth)\\Feels Like Today
TTITLE5=Stand
TTITLE6=These Days
TTITLE7=What Hurts The Most
TTITLE8=Life Is A Highway
TTITLE9=Encore: Foreplay\\Long Time\\Free Ride
TTITLE10=[CD-ROM Track]
EXTD=
EXTT0=
EXTT1=
EXTT2=
EXTT3=
EXTT4=
EXTT5=
EXTT6=
EXTT7=
EXTT8=
EXTT9=
EXTT10=
PLAYORDER=
